<svg width="67" height="19" viewBox="0 0 67 19" fill="none" xmlns="http://www.w3.org/2000/svg">
<path d="M17.1797 1.89844V2.61328C17.1797 3.33984 17.207 4.0625 17.2617 4.78125C17.3164 5.5 17.3945 6.21094 17.4961 6.91406L15.9141 7.21875C15.7422 5.96094 15.2617 5.00781 14.4727 4.35938C13.6836 3.71094 12.6133 3.38672 11.2617 3.38672C9.66797 3.38672 8.42578 3.90234 7.53516 4.93359C6.65234 5.95703 6.21094 7.40234 6.21094 9.26953C6.21094 11.332 6.69531 12.9375 7.66406 14.0859C8.63281 15.2266 9.98047 15.7969 11.707 15.7969C12.8164 15.7969 13.7812 15.5156 14.6016 14.9531C15.4297 14.3906 16.1133 13.5508 16.6523 12.4336L18.0938 13.0781C17.7344 13.8203 17.4141 14.543 17.1328 15.2461C16.8516 15.9414 16.6055 16.6289 16.3945 17.3086C15.2227 17.707 14.1758 18 13.2539 18.1875C12.3398 18.3828 11.4961 18.4805 10.7227 18.4805C7.75391 18.4805 5.36328 17.6836 3.55078 16.0898C1.74609 14.4883 0.84375 12.3828 0.84375 9.77344C0.84375 7.14844 1.83203 5.00391 3.80859 3.33984C5.78516 1.67578 8.33984 0.84375 11.4727 0.84375C12.4258 0.84375 13.375 0.929688 14.3203 1.10156C15.2656 1.27344 16.2188 1.53906 17.1797 1.89844ZM26.0742 7.85156C25.3242 7.85156 24.7539 8.16016 24.3633 8.77734C23.9727 9.38672 23.7773 10.2852 23.7773 11.4727C23.7773 13.0586 23.9883 14.2617 24.4102 15.082C24.832 15.8945 25.4609 16.3008 26.2969 16.3008C27.0781 16.3008 27.6641 15.9883 28.0547 15.3633C28.4453 14.7305 28.6406 13.7852 28.6406 12.5273C28.6406 10.9961 28.4219 9.83594 27.9844 9.04688C27.5547 8.25 26.918 7.85156 26.0742 7.85156ZM26.2031 5.78906C28.3359 5.78906 30.0547 6.37891 31.3594 7.55859C32.6719 8.73047 33.3281 10.25 33.3281 12.1172C33.3281 13.9609 32.6602 15.4766 31.3242 16.6641C29.9961 17.8438 28.2812 18.4336 26.1797 18.4336C24.0859 18.4336 22.3828 17.8672 21.0703 16.7344C19.7656 15.5938 19.1133 14.1211 19.1133 12.3164C19.1133 10.4102 19.7773 8.84766 21.1055 7.62891C22.4336 6.40234 24.1328 5.78906 26.2031 5.78906ZM40.5352 5.76562C40.4883 6.3125 40.4453 6.85938 40.4062 7.40625C40.375 7.94531 40.3477 8.49219 40.3242 9.04688C41.0195 7.85156 41.5977 7.04688 42.0586 6.63281C42.5273 6.21094 43.0352 6 43.582 6C44.1211 6 44.5742 6.21094 44.9414 6.63281C45.3164 7.05469 45.5039 7.57031 45.5039 8.17969C45.5039 8.72656 45.3633 9.17188 45.082 9.51562C44.8008 9.85938 44.4453 10.0312 44.0156 10.0312C43.7734 10.0312 43.457 9.91406 43.0664 9.67969C42.6836 9.4375 42.3828 9.31641 42.1641 9.31641C41.9375 9.31641 41.6797 9.40625 41.3906 9.58594C41.1016 9.76562 40.7852 10.0352 40.4414 10.3945C40.4336 10.7148 40.4258 11.0469 40.418 11.3906C40.418 11.7344 40.418 12.1836 40.418 12.7383V14.1094C40.418 15.2578 40.5469 15.9805 40.8047 16.2773C41.0703 16.5742 41.5898 16.7227 42.3633 16.7227C42.5039 16.7227 42.6172 16.7227 42.7031 16.7227C42.7891 16.7148 42.8672 16.7109 42.9375 16.7109V18C41.9531 17.9375 41.0703 17.8906 40.2891 17.8594C39.5156 17.8281 38.8125 17.8125 38.1797 17.8125C37.8125 17.8125 37.2891 17.8281 36.6094 17.8594C35.9297 17.8906 35.1836 17.9375 34.3711 18V16.6758C34.4102 16.6758 34.4727 16.6797 34.5586 16.6875C34.6445 16.6953 34.6992 16.6992 34.7227 16.6992C35.7773 16.6992 36.3047 15.4961 36.3047 13.0898C36.3047 12.6914 36.3086 12.3828 36.3164 12.1641L36.3398 10.8516V9.96094C36.3398 9.21875 36.2461 8.73828 36.0586 8.51953C35.8789 8.29297 35.5469 8.17969 35.0625 8.17969C34.9688 8.17969 34.8633 8.18359 34.7461 8.19141C34.6367 8.19141 34.5195 8.19531 34.3945 8.20312L34.3242 6.96094C35.3242 6.85156 36.3398 6.69922 37.3711 6.50391C38.4102 6.30078 39.4648 6.05469 40.5352 5.76562ZM59.4844 15.5039L60.0586 16.6758C58.9805 17.3086 58.0898 17.7656 57.3867 18.0469C56.6836 18.3359 56.1016 18.4805 55.6406 18.4805C54.9609 18.4805 54.4453 18.3281 54.0938 18.0234C53.75 17.7266 53.5664 17.2812 53.543 16.6875C52.6133 17.3359 51.8477 17.7969 51.2461 18.0703C50.6445 18.3438 50.1016 18.4805 49.6172 18.4805C48.6953 18.4805 47.9062 18.1328 47.25 17.4375C46.6016 16.7422 46.2773 15.9062 46.2773 14.9297C46.2773 13.3594 48.0938 12.168 51.7266 11.3555C52.4844 11.1836 53.0781 11.0469 53.5078 10.9453C53.5156 10.7109 53.5234 10.4609 53.5312 10.1953C53.5469 9.92188 53.5547 9.76172 53.5547 9.71484C53.5547 9.13672 53.4219 8.71094 53.1562 8.4375C52.8906 8.15625 52.4766 8.01562 51.9141 8.01562C51.3516 8.01562 50.9062 8.11719 50.5781 8.32031C50.2578 8.52344 50.0977 8.79688 50.0977 9.14062V9.38672C50.0977 9.73047 49.9336 9.98828 49.6055 10.1602C49.2773 10.332 48.7773 10.418 48.1055 10.418C47.6602 10.418 47.3242 10.3359 47.0977 10.1719C46.8711 10 46.7578 9.74609 46.7578 9.41016C46.7578 9.15234 46.8594 8.87109 47.0625 8.56641C47.2734 8.26172 47.5742 7.94922 47.9648 7.62891C48.6602 7.06641 49.4766 6.62109 50.4141 6.29297C51.3516 5.95703 52.2695 5.78906 53.168 5.78906C54.6992 5.78906 55.8438 6.14062 56.6016 6.84375C57.3672 7.54688 57.75 8.60938 57.75 10.0312C57.75 10.3594 57.7188 11.043 57.6562 12.082C57.5938 13.1211 57.5625 13.9961 57.5625 14.707C57.5625 15.1055 57.6289 15.4062 57.7617 15.6094C57.9023 15.8125 58.1055 15.9141 58.3711 15.9141C58.4883 15.9141 58.6289 15.8828 58.793 15.8203C58.957 15.7578 59.1875 15.6523 59.4844 15.5039ZM53.4961 12.5508C53.3242 12.6055 53.0703 12.6836 52.7344 12.7852C51.0547 13.2852 50.2148 13.8867 50.2148 14.5898C50.2148 14.9805 50.3477 15.3164 50.6133 15.5977C50.8867 15.8711 51.2188 16.0078 51.6094 16.0078C51.8281 16.0078 52.0781 15.9492 52.3594 15.832C52.6484 15.7148 53.0234 15.5078 53.4844 15.2109L53.4961 12.5508Z" fill="#E57CD8"/>
<path d="M64.0312 13.2422L65.5664 14.1562C65.9883 14.4141 66.2852 14.6719 66.457 14.9297C66.6289 15.1875 66.7148 15.5 66.7148 15.8672C66.7148 16.1953 66.6172 16.4961 66.4219 16.7695C66.2266 17.0352 65.9102 17.3008 65.4727 17.5664L64.0547 18.457L62.4492 17.4961C62.0508 17.2695 61.7656 17.0312 61.5938 16.7812C61.4219 16.5234 61.3359 16.2266 61.3359 15.8906C61.3359 15.5234 61.4336 15.1953 61.6289 14.9062C61.8242 14.6094 62.1133 14.3516 62.4961 14.1328L64.0312 13.2422Z" fill="#FFDE91"/>
</svg>
